Coordinates
version=1
nRows=4
nColumns=63
inDegrees=yes

Units are S.I. units (second, meters, Newtons, ...)
If the header above contains a line with 'inDegrees', this indicates whether rotational values are in degrees (yes) or radians (no).

endheader
time	pelvis_tilt	pelvis_list	pelvis_rotation	pelvis_tx	pelvis_ty	pelvis_tz	hip_flexion_r	hip_adduction_r	hip_rotation_r	knee_angle_r	knee_angle_r_beta	ankle_angle_r	subtalar_angle_r	mtp_angle_r	hip_flexion_l	hip_adduction_l	hip_rotation_l	knee_angle_l	knee_angle_l_beta	ankle_angle_l	subtalar_angle_l	mtp_angle_l	L5_S1_Flex_Ext	L5_S1_Lat_Bending	L5_S1_axial_rotation	L4_L5_Flex_Ext	L4_L5_Lat_Bending	L4_L5_axial_rotation	L3_L4_Flex_Ext	L3_L4_Lat_Bending	L3_L4_axial_rotation	L2_L3_Flex_Ext	L2_L3_Lat_Bending	L2_L3_axial_rotation	L1_L2_Flex_Ext	L1_L2_Lat_Bending	L1_L2_axial_rotation	L1_T12_Flex_Ext	L1_T12_Lat_Bending	L1_T12_axial_rotation	Abs_r3	Abs_r2	Abs_r1	Abs_t1	Abs_t2	neck_flexion	neck_bending	neck_rotation	arm_flex_r	arm_add_r	arm_rot_r	elbow_flex_r	pro_sup_r	wrist_flex_r	wrist_dev_r	arm_flex_l	arm_add_l	arm_rot_l	elbow_flex_l	pro_sup_l	wrist_flex_l	wrist_dev_l
      7.78300000	    -63.65985764	     -7.05625213	      0.47940827	     -0.30888194	      1.14507809	      0.04101345	    119.93215230	     -8.36813911	     -5.72639307	     83.67524595	      1.46040854	     17.13534243	    -10.98197923	      0.00000000	     95.69862768	     -6.49443667	      4.36373326	     61.92824787	      1.08085183	      6.87345072	      4.89445098	      0.00000000	     -0.09423933	      1.53804644	      0.14184914	     -0.17501186	      2.04560176	      0.15071472	     -0.15482580	      3.73960611	      0.15071472	     -0.10770613	      3.73960611	      0.12411800	     -0.08751064	      3.13638429	      0.11525243	     -0.05384835	      2.38243393	      0.10638686	     -0.67314213	     17.39868890	      0.78892239	      0.00000000	      0.00000000	      0.00000000	      0.00000000	      0.00000000	     69.69631519	     -9.79956754	      4.27448952	     45.23177281	     67.54433944	      0.00000000	      5.00000008	     63.92962513	     -2.62766566	     -7.10667294	     41.66767914	     64.74166456	      0.00000000	      5.00000008
      7.79200000	    -63.64537146	     -7.11719757	      1.00530301	     -0.30916409	      1.14530824	      0.04090999	    118.99199521	     -8.62754464	     -5.66930640	     81.24250157	      1.41794914	     16.69090684	    -10.95437776	      0.00000000	     96.63340552	     -6.02637459	      4.52379212	     64.62695905	      1.12795322	      7.36318945	      4.52455991	      0.00000000	     -0.09415309	      1.52620496	      0.06348501	     -0.17485170	      2.02985260	      0.06745282	     -0.15468411	      3.71081474	      0.06745282	     -0.10760756	      3.71081474	      0.05554938	     -0.08743056	      3.11223715	      0.05158157	     -0.05379907	      2.36409148	      0.04761376	     -0.67252609	     17.26473574	      0.35308456	      0.00000000	      0.00000000	      0.00000000	      0.00000000	      0.00000000	     69.57204149	     -9.83647474	      3.97904925	     45.42779259	     67.52400110	      0.00000000	      5.00000009	     64.04099660	     -2.57336757	     -7.09515797	     41.77712727	     64.75614671	      0.00000000	      5.00000009
      7.80000000	    -63.66400889	     -7.31934224	      1.16960126	     -0.30939095	      1.14568271	      0.04117759	    117.83062996	     -8.64649752	     -6.00622842	     78.50758189	      1.37021579	     16.28018313	    -10.93481337	      0.00000000	     97.68709049	     -5.91043518	      4.77677922	     67.34659806	      1.17541988	      7.62140765	      3.75749901	      0.00000000	     -0.09477317	      1.53204501	      0.06239819	     -0.17600325	      2.03761987	      0.06629807	     -0.15570284	      3.72501424	      0.06629807	     -0.10831625	      3.72501424	      0.05459841	     -0.08800636	      3.12414619	      0.05069853	     -0.05415339	      2.37313772	      0.04679864	     -0.67695525	     17.33079958	      0.34703999	      0.00000000	      0.00000000	      0.00000000	      0.00000000	      0.00000000	     69.42783226	     -9.86807948	      3.27153611	     45.64639814	     67.47857041	      0.00000000	      5.00000009	     64.12222644	     -2.40356613	     -6.99221531	     41.80049766	     64.80044689	      0.00000000	      5.00000009
      7.80800000	    -63.62613004	     -7.33544842	      1.59299324	     -0.30962883	      1.14580523	      0.04134815	    116.70358464	     -8.77338486	     -5.96462430	     75.93063604	      1.32523960	     15.79445446	    -10.80635605	      0.00000000	     98.70777786	     -5.53223167	      4.86800260	     70.09020802	      1.22330490	      7.86772128	      3.10470093	      0.00000000	     -0.09570716	      1.51085135	      0.00551611	     -0.17773777	      2.00943230	      0.00586087	     -0.15723729	      3.67348398	      0.00586087	     -0.10938371	      3.67348398	      0.00482660	     -0.08887367	      3.08092808	      0.00448184	     -0.05468707	      2.34030874	      0.00413709	     -0.68362668	     17.09105266	      0.03067897	      0.00000000	      0.00000000	      0.00000000	      0.00000000	      0.00000000	     69.18651647	     -9.85929202	      2.65743580	     45.87467296	     67.44760590	      0.00000000	      5.00000009	     64.29373472	     -2.34174958	     -6.83275702	     41.70824551	     64.85809488	      0.00000000	      5.00000009
